<svg width="20" height="22" viewBox="0 0 20 22" fill="none" xmlns="http://www.w3.org/2000/svg">
<path d="M10 2.44542C12.6506 2.44542 13.0121 2.44542 14.0964 2.44542C15.0602 2.44542 15.5422 2.69941 15.9036 2.8264C16.3855 3.08039 16.747 3.20738 17.1084 3.58836C17.4699 3.96934 17.7108 4.35032 17.8313 4.85829C17.9518 5.23927 18.0723 5.74724 18.1928 6.76319C18.1928 7.90612 18.1928 8.16011 18.1928 11.0809C18.1928 14.0018 18.1928 14.2558 18.1928 15.3987C18.1928 16.4147 17.9518 16.9226 17.8313 17.3036C17.5904 17.8116 17.4699 18.1926 17.1084 18.5735C16.747 18.9545 16.3855 19.2085 15.9036 19.3355C15.5422 19.4625 15.0602 19.5895 14.0964 19.7165C13.0121 19.7165 12.7711 19.7165 10 19.7165C7.22892 19.7165 6.98795 19.7165 5.90362 19.7165C4.93976 19.7165 4.45783 19.4625 4.09639 19.3355C3.61446 19.0815 3.25301 18.9545 2.89157 18.5735C2.53012 18.1926 2.28916 17.8116 2.16868 17.3036C2.04819 16.9226 1.92771 16.4147 1.80723 15.3987C1.80723 14.2558 1.80723 14.0018 1.80723 11.0809C1.80723 8.16011 1.80723 7.90612 1.80723 6.76319C1.80723 5.74724 2.04819 5.23927 2.16868 4.85829C2.40964 4.35032 2.53012 3.96934 2.89157 3.58836C3.25301 3.20738 3.61446 2.95339 4.09639 2.8264C4.45783 2.69941 4.93976 2.57242 5.90362 2.44542C6.98795 2.44542 7.3494 2.44542 10 2.44542ZM10 0.540527C7.22892 0.540527 6.98795 0.540527 5.90362 0.540527C4.81928 0.540527 4.09639 0.794514 3.49398 1.0485C2.89157 1.30249 2.28916 1.68347 1.68675 2.31843C1.08434 2.9534 0.843374 3.46137 0.481928 4.22333C0.240965 4.85829 0.120482 5.62025 0 6.76319C0 7.90612 0 8.2871 0 11.0809C0 14.0018 0 14.2558 0 15.3987C0 16.5416 0.240965 17.3036 0.481928 17.9386C0.722892 18.5735 1.08434 19.2085 1.68675 19.8435C2.28916 20.4784 2.77109 20.7324 3.49398 21.1134C4.09639 21.3674 4.81928 21.4944 5.90362 21.6214C6.98795 21.6214 7.3494 21.6214 10 21.6214C12.6506 21.6214 13.0121 21.6214 14.0964 21.6214C15.1807 21.6214 15.9036 21.3674 16.506 21.1134C17.1084 20.8594 17.7108 20.4784 18.3133 19.8435C18.9157 19.2085 19.1566 18.7005 19.5181 17.9386C19.759 17.3036 19.8795 16.5416 20 15.3987C20 14.2558 20 13.8748 20 11.0809C20 8.2871 20 7.90612 20 6.76319C20 5.62025 19.759 4.85829 19.5181 4.22333C19.2771 3.58836 18.9157 2.9534 18.3133 2.31843C17.7108 1.68347 17.2289 1.42948 16.506 1.0485C15.9036 0.794514 15.1807 0.66752 14.0964 0.540527C13.0121 0.540527 12.7711 0.540527 10 0.540527Z" fill="white"/>
<path d="M10 5.62025C7.10843 5.62025 4.81928 8.03312 4.81928 11.0809C4.81928 14.1288 7.10843 16.5416 10 16.5416C12.8916 16.5416 15.1807 14.1288 15.1807 11.0809C15.1807 8.03312 12.8916 5.62025 10 5.62025ZM10 14.6368C8.19277 14.6368 6.62651 13.1128 6.62651 11.0809C6.62651 9.17605 8.07229 7.52514 10 7.52514C11.8072 7.52514 13.3735 9.04906 13.3735 11.0809C13.3735 12.9858 11.8072 14.6368 10 14.6368Z" fill="white"/>
<path d="M15.3012 6.76319C15.9666 6.76319 16.506 6.19462 16.506 5.49326C16.506 4.79189 15.9666 4.22333 15.3012 4.22333C14.6358 4.22333 14.0964 4.79189 14.0964 5.49326C14.0964 6.19462 14.6358 6.76319 15.3012 6.76319Z" fill="white"/>
</svg>
