<svg width="27" height="36" viewBox="0 0 27 36" fill="none" xmlns="http://www.w3.org/2000/svg">
<mask id="path-1-inside-1_82_269" fill="white">
<path fill-rule="evenodd" clip-rule="evenodd" d="M13.5 35.2566C13.5 35.2566 27 20.9558 27 13.5C27 6.04416 20.9558 0 13.5 0C6.04416 0 0 6.04416 0 13.5C0 20.9558 13.5 35.2566 13.5 35.2566ZM13.5 17C15.433 17 17 15.433 17 13.5C17 11.567 15.433 10 13.5 10C11.567 10 10 11.567 10 13.5C10 15.433 11.567 17 13.5 17Z"/>
</mask>
<path d="M13.5 35.2566L12.0457 36.6295L13.5 38.1701L14.9543 36.6295L13.5 35.2566ZM25 13.5C25 14.8553 24.3537 16.786 23.1233 19.1087C21.9253 21.3702 20.3048 23.7643 18.6491 25.9755C16.9989 28.1793 15.3441 30.1611 14.0994 31.5942C13.478 32.3096 12.961 32.8857 12.601 33.2814C12.421 33.4792 12.2803 33.6317 12.1855 33.7338C12.1381 33.7849 12.1022 33.8234 12.0787 33.8486C12.0669 33.8612 12.0581 33.8704 12.0526 33.8763C12.0498 33.8793 12.0479 33.8814 12.0467 33.8826C12.0461 33.8832 12.0457 33.8836 12.0456 33.8838C12.0455 33.8839 12.0455 33.8839 12.0455 33.8839C12.0455 33.8838 12.0457 33.8837 13.5 35.2566C14.9543 36.6295 14.9546 36.6293 14.9549 36.629C14.955 36.6288 14.9553 36.6285 14.9557 36.6281C14.9563 36.6275 14.9572 36.6266 14.9582 36.6254C14.9603 36.6232 14.9632 36.6201 14.967 36.6161C14.9744 36.6082 14.985 36.5969 14.9988 36.5822C15.0263 36.5528 15.0662 36.5101 15.1177 36.4546C15.2207 36.3436 15.3701 36.1816 15.5592 35.9738C15.9374 35.5582 16.4751 34.9588 17.1194 34.2171C18.4059 32.7358 20.1261 30.6764 21.8509 28.373C23.5702 26.077 25.3247 23.498 26.658 20.9811C27.9588 18.5255 29 15.8726 29 13.5H25ZM13.5 2C19.8513 2 25 7.14873 25 13.5H29C29 4.93959 22.0604 -2 13.5 -2V2ZM2 13.5C2 7.14873 7.14873 2 13.5 2V-2C4.93959 -2 -2 4.93959 -2 13.5H2ZM13.5 35.2566C14.9543 33.8837 14.9545 33.8838 14.9545 33.8839C14.9545 33.8839 14.9545 33.8839 14.9544 33.8838C14.9543 33.8836 14.9539 33.8832 14.9533 33.8826C14.9521 33.8814 14.9502 33.8793 14.9474 33.8763C14.9419 33.8704 14.9331 33.8612 14.9213 33.8486C14.8978 33.8234 14.8619 33.7849 14.8145 33.7338C14.7197 33.6317 14.5791 33.4792 14.3991 33.2814C14.039 32.8857 13.522 32.3096 12.9006 31.5942C11.6559 30.1611 10.0011 28.1793 8.35092 25.9755C6.69521 23.7643 5.0747 21.3702 3.87672 19.1087C2.64631 16.786 2 14.8553 2 13.5H-2C-2 15.8726 -0.958813 18.5255 0.342034 20.9811C1.6753 23.498 3.42979 26.077 5.14908 28.373C6.87388 30.6764 8.59405 32.7358 9.88064 34.2171C10.5249 34.9588 11.0626 35.5582 11.4408 35.9738C11.6299 36.1816 11.7793 36.3436 11.8823 36.4546C11.9338 36.5101 11.9737 36.5528 12.0012 36.5822C12.015 36.5969 12.0256 36.6082 12.033 36.6161C12.0368 36.6201 12.0397 36.6232 12.0418 36.6254C12.0428 36.6266 12.0437 36.6275 12.0443 36.6281C12.0447 36.6285 12.045 36.6288 12.0452 36.629C12.0454 36.6293 12.0457 36.6295 13.5 35.2566ZM15 13.5C15 14.3284 14.3284 15 13.5 15V19C16.5376 19 19 16.5376 19 13.5H15ZM13.5 12C14.3284 12 15 12.6716 15 13.5H19C19 10.4624 16.5376 8 13.5 8V12ZM12 13.5C12 12.6716 12.6716 12 13.5 12V8C10.4624 8 8 10.4624 8 13.5H12ZM13.5 15C12.6716 15 12 14.3284 12 13.5H8C8 16.5376 10.4624 19 13.5 19V15Z" fill="white" mask="url(#path-1-inside-1_82_269)"/>
</svg>
