<svg width="22" height="23" viewBox="0 0 22 23" fill="none" xmlns="http://www.w3.org/2000/svg">
<g clip-path="url(#clip0_107_1093)">
<path d="M11 22.0061C17.0647 22.0061 22 17.0708 22 11.0061C22 4.94145 17.0647 0.00610352 11 0.00610352C4.93528 0.00610352 0 4.94145 0 11.0061C0 17.0708 4.93534 22.0061 11 22.0061ZM11 1.47275C16.258 1.47275 20.5334 5.74806 20.5334 11.0061C20.5334 16.2641 16.258 20.5395 11 20.5395C5.74196 20.5395 1.46664 16.2641 1.46664 11.0061C1.46664 5.74806 5.74202 1.47275 11 1.47275Z" fill="white"/>
<path d="M14.2083 14.5116C14.344 14.6216 14.5052 14.6729 14.6666 14.6729C14.8829 14.6729 15.0956 14.5776 15.2386 14.3979C15.4916 14.0826 15.4402 13.6206 15.1249 13.3676L11.7332 10.6542V5.13957C11.7332 4.73623 11.4033 4.40625 10.9999 4.40625C10.5966 4.40625 10.2666 4.73623 10.2666 5.13957V11.0063C10.2666 11.2299 10.3693 11.4389 10.5416 11.5782L14.2083 14.5116Z" fill="white"/>
</g>
<defs>
<clipPath id="clip0_107_1093">
<rect width="22" height="22" fill="white" transform="translate(0 0.00610352)"/>
</clipPath>
</defs>
</svg>
